{
  "accessors": [
    {
      "bufferView": 2,
      "componentType": 5126,
      "count": 65532,
      "max": [
        495.27447509765625,
        163.47474670410156,
        507.3711242675781
      ],
      "min": [
        -489.3951721191406,
        -64.82862854003906,
        -488.5827331542969
      ],
      "type": "VEC3"
    },
    {
      "bufferView": 2,
      "byteOffset": 786384,
      "componentType": 5126,
      "count": 65532,
      "max": [
        0.9999774694442749,
        0.9999998211860657,
        0.9999284744262695
      ],
      "min": [
        -0.9999240040779114,
        -0.9993591904640198,
        -0.9999135732650757
      ],
      "type": "VEC3"
    },
    {
      "bufferView": 1,
      "componentType": 5126,
      "count": 65532,
      "max": [
        0.9996744990348816,
        0.999728798866272
      ],
      "min": [
        0.0002471505431458354,
        0.0005473494529724121
      ],
      "type": "VEC2"
    },
    {
      "bufferView": 0,
      "componentType": 5125,
      "count": 302160,
      "type": "SCALAR"
    },
    {
      "bufferView": 2,
      "byteOffset": 1572768,
      "componentType": 5126,
      "count": 65532,
      "max": [
        484.74102783203125,
        160.62371826171875,
        485.1533508300781
      ],
      "min": [
        -477.9540710449219,
        -67.93873596191406,
        -480.9615478515625
      ],
      "type": "VEC3"
    },
    {
      "bufferView": 2,
      "byteOffset": 2359152,
      "componentType": 5126,
      "count": 65532,
      "max": [
        0.9994334578514099,
        1.0,
        0.999941885471344
      ],
      "min": [
        -0.9999671578407288,
        -0.9998520612716675,
        -0.9999869465827942
      ],
      "type": "VEC3"
    },
    {
      "bufferView": 1,
      "byteOffset": 524256,
      "componentType": 5126,
      "count": 65532,
      "max": [
        0.9993154406547546,
        0.9997269511222839
      ],
      "min": [
        0.00020700505410786718,
        0.0016595125198364258
      ],
      "type": "VEC2"
    },
    {
      "bufferView": 0,
      "byteOffset": 1208640,
      "componentType": 5125,
      "count": 294756,
      "type": "SCALAR"
    },
    {
      "bufferView": 2,
      "byteOffset": 3145536,
      "componentType": 5126,
      "count": 65532,
      "max": [
        497.6175842285156,
        163.47474670410156,
        511.03057861328125
      ],
      "min": [
        -493.91815185546875,
        -69.01883697509766,
        -488.13665771484375
      ],
      "type": "VEC3"
    },
    {
      "bufferView": 2,
      "byteOffset": 3931920,
      "componentType": 5126,
      "count": 65532,
      "max": [
        0.999983012676239,
        1.0,
        0.9999648332595825
      ],
      "min": [
        -0.9999329447746277,
        -0.9999956488609314,
        -0.9998626112937927
      ],
      "type": "VEC3"
    },
    {
      "bufferView": 1,
      "byteOffset": 1048512,
      "componentType": 5126,
      "count": 65532,
      "max": [
        0.9996227622032166,
        0.9997943639755249
      ],
      "min": [
        0.00019871343101840466,
        0.0005474090576171875
      ],
      "type": "VEC2"
    },
    {
      "bufferView": 0,
      "byteOffset": 2387664,
      "componentType": 5125,
      "count": 265233,
      "type": "SCALAR"
    },
    {
      "bufferView": 2,
      "byteOffset": 4718304,
      "componentType": 5126,
      "count": 65532,
      "max": [
        497.35858154296875,
        163.2646942138672,
        511.2043151855469
      ],
      "min": [
        -492.95050048828125,
        -69.52921295166016,
        -488.689208984375
      ],
      "type": "VEC3"
    },
    {
      "bufferView": 2,
      "byteOffset": 5504688,
      "componentType": 5126,
      "count": 65532,
      "max": [
        0.9999594688415527,
        0.9999998211860657,
        0.9999992251396179
      ],
      "min": [
        -0.9999671578407288,
        -0.9999991655349731,
        -0.9998956322669983
      ],
      "type": "VEC3"
    },
    {
      "bufferView": 1,
      "byteOffset": 1572768,
      "componentType": 5126,
      "count": 65532,
      "max": [
        0.9997788071632385,
        0.9998089075088501
      ],
      "min": [
        0.00020824956300202757,
        0.00029659271240234375
      ],
      "type": "VEC2"
    },
    {
      "bufferView": 0,
      "byteOffset": 3448596,
      "componentType": 5125,
      "count": 208791,
      "type": "SCALAR"
    },
    {
      "bufferView": 2,
      "byteOffset": 6291072,
      "componentType": 5126,
      "count": 65533,
      "max": [
        497.6175842285156,
        162.6728057861328,
        511.310791015625
      ],
      "min": [
        -493.91815185546875,
        -69.52921295166016,
        -488.689208984375
      ],
      "type": "VEC3"
    },
    {
      "bufferView": 2,
      "byteOffset": 7077468,
      "componentType": 5126,
      "count": 65533,
      "max": [
        0.9998500943183899,
        1.0,
        0.999941885471344
      ],
      "min": [
        -0.9999155402183533,
        -0.9999997615814209,
        -0.9998944997787476
      ],
      "type": "VEC3"
    },
    {
      "bufferView": 1,
      "byteOffset": 2097024,
      "componentType": 5126,
      "count": 65533,
      "max": [
        0.999714732170105,
        0.9997987151145935
      ],
      "min": [
        0.0001915614993777126,
        0.0004029273986816406
      ],
      "type": "VEC2"
    },
    {
      "bufferView": 0,
      "byteOffset": 4283760,
      "componentType": 5125,
      "count": 123063,
      "type": "SCALAR"
    },
    {
      "bufferView": 2,
      "byteOffset": 7863864,
      "componentType": 5126,
      "count": 5296,
      "max": [
        496.3960266113281,
        153.76422119140625,
        510.89251708984375
      ],
      "min": [
        -493.016845703125,
        -68.94898986816406,
        -488.5827331542969
      ],
      "type": "VEC3"
    },
    {
      "bufferView": 2,
      "byteOffset": 7927416,
      "componentType": 5126,
      "count": 5296,
      "max": [
        0.9996933937072754,
        0.9999977946281433,
        0.9998849630355835
      ],
      "min": [
        -0.9994811415672302,
        -0.9999996423721313,
        -0.999737024307251
      ],
      "type": "VEC3"
    },
    {
      "bufferView": 1,
      "byteOffset": 2621288,
      "componentType": 5126,
      "count": 5296,
      "max": [
        0.9983367919921875,
        0.9982349872589111
      ],
      "min": [
        0.0010499871568754315,
        0.0017567276954650879
      ],
      "type": "VEC2"
    },
    {
      "bufferView": 0,
      "byteOffset": 4776012,
      "componentType": 5125,
      "count": 5820,
      "type": "SCALAR"
    }
  ],
  "asset": {
    "extras": {
      "author": "ஜCIHIRISஜ (https://sketchfab.com/crazy4creativity)",
      "license": "CC-BY-4.0 (http://creativecommons.org/licenses/by/4.0/)",
      "source": "https://sketchfab.com/3d-models/double-whopper-hamburger-value-meal-47196b81811f40239607dbd9932493f8",
      "title": "Double Whopper Hamburger Value Meal"
    },
    "generator": "Sketchfab-12.67.0",
    "version": "2.0"
  },
  "bufferViews": [
    {
      "buffer": 0,
      "byteLength": 4799292,
      "name": "floatBufferViews",
      "target": 34963
    },
    {
      "buffer": 0,
      "byteLength": 2663656,
      "byteOffset": 4799292,
      "byteStride": 8,
      "name": "floatBufferViews",
      "target": 34962
    },
    {
      "buffer": 0,
      "byteLength": 7990968,
      "byteOffset": 7462948,
      "byteStride": 12,
      "name": "floatBufferViews",
      "target": 34962
    }
  ],
  "buffers": [
    {
      "byteLength": 15453916,
      "uri": "scene.bin"
    }
  ],
  "extensionsUsed": [
    "KHR_materials_unlit"
  ],
  "images": [
    {
      "uri": "textures/Material0_baseColor.jpeg"
    }
  ],
  "materials": [
    {
      "doubleSided": true,
      "extensions": {
        "KHR_materials_unlit": {}
      },
      "name": "Material0",
      "pbrMetallicRoughness": {
        "baseColorTexture": {
          "index": 0
        },
        "metallicFactor": 0.0
      }
    }
  ],
  "meshes": [
    {
      "name": "Stereo textured mesh_Material0_0",
      "primitives": [
        {
          "attributes": {
            "NORMAL": 1,
            "POSITION": 0,
            "TEXCOORD_0": 2
          },
          "indices": 3,
          "material": 0,
          "mode": 4
        }
      ]
    },
    {
      "name": "Stereo textured mesh_Material0_0",
      "primitives": [
        {
          "attributes": {
            "NORMAL": 5,
            "POSITION": 4,
            "TEXCOORD_0": 6
          },
          "indices": 7,
          "material": 0,
          "mode": 4
        }
      ]
    },
    {
      "name": "Stereo textured mesh_Material0_0",
      "primitives": [
        {
          "attributes": {
            "NORMAL": 9,
            "POSITION": 8,
            "TEXCOORD_0": 10
          },
          "indices": 11,
          "material": 0,
          "mode": 4
        }
      ]
    },
    {
      "name": "Stereo textured mesh_Material0_0",
      "primitives": [
        {
          "attributes": {
            "NORMAL": 13,
            "POSITION": 12,
            "TEXCOORD_0": 14
          },
          "indices": 15,
          "material": 0,
          "mode": 4
        }
      ]
    },
    {
      "name": "Stereo textured mesh_Material0_0",
      "primitives": [
        {
          "attributes": {
            "NORMAL": 17,
            "POSITION": 16,
            "TEXCOORD_0": 18
          },
          "indices": 19,
          "material": 0,
          "mode": 4
        }
      ]
    },
    {
      "name": "Stereo textured mesh_Material0_0",
      "primitives": [
        {
          "attributes": {
            "NORMAL": 21,
            "POSITION": 20,
            "TEXCOORD_0": 22
          },
          "indices": 23,
          "material": 0,
          "mode": 4
        }
      ]
    }
  ],
  "nodes": [
    {
      "children": [
        1
      ],
      "matrix": [
        0.992912232875824,
        -0.009020755998790238,
        -0.11850693076848984,
        0.0,
        -0.009405694901943207,
        -0.9999521374702454,
        -0.002689335960895045,
        0.0,
        -0.118477001786232,
        0.003784914501011592,
        -0.9929496049880981,
        0.0,
        -1.7686543464660645,
        -58.2207260131836,
        35.83543014526366,
        1.0
      ],
      "name": "Sketchfab_model"
    },
    {
      "children": [
        2
      ],
      "matrix": [
        1.0,
        0.0,
        0.0,
        0.0,
        0.0,
        -1.0,
        0.0,
        0.0,
        0.0,
        0.0,
        -1.0,
        0.0,
        0.0,
        0.0,
        0.0,
        1.0
      ],
      "name": "sketchfabTemp.obj.fbx"
    },
    {
      "children": [
        3
      ],
      "name": "RootNode"
    },
    {
      "children": [
        4,
        5,
        6,
        7,
        8,
        9
      ],
      "name": "Stereo textured mesh"
    },
    {
      "mesh": 0,
      "name": "Stereo textured mesh_Material0_0"
    },
    {
      "mesh": 1,
      "name": "Stereo textured mesh_Material0_0"
    },
    {
      "mesh": 2,
      "name": "Stereo textured mesh_Material0_0"
    },
    {
      "mesh": 3,
      "name": "Stereo textured mesh_Material0_0"
    },
    {
      "mesh": 4,
      "name": "Stereo textured mesh_Material0_0"
    },
    {
      "mesh": 5,
      "name": "Stereo textured mesh_Material0_0"
    }
  ],
  "samplers": [
    {
      "magFilter": 9729,
      "minFilter": 9987,
      "wrapS": 10497,
      "wrapT": 10497
    }
  ],
  "scene": 0,
  "scenes": [
    {
      "name": "Sketchfab_Scene",
      "nodes": [
        0
      ]
    }
  ],
  "textures": [
    {
      "sampler": 0,
      "source": 0
    }
  ]
}
